<svg xmlns="http://www.w3.org/2000/svg" width="20.677" height="20.677" viewBox="0 0 20.677 20.677">
  <path id="Icon_ionic-ios-arrow-dropdown-circle" data-name="Icon ionic-ios-arrow-dropdown-circle" d="M3.375,13.713A10.338,10.338,0,1,0,13.713,3.375,10.337,10.337,0,0,0,3.375,13.713Zm14.369-2.157a.963.963,0,0,1,1.357,0,.948.948,0,0,1,.278.676.964.964,0,0,1-.283.681l-4.687,4.672a.958.958,0,0,1-1.322-.03L8.33,12.814a.959.959,0,1,1,1.357-1.357l4.031,4.071Z" transform="translate(-3.375 24.052) rotate(-90)" fill="#eff4ff"/>
</svg>
