<svg xmlns="http://www.w3.org/2000/svg" xmlns:xlink="http://www.w3.org/1999/xlink" width="214" height="50" viewBox="0 0 214 50">
  <defs>
    <linearGradient id="linear-gradient" x1="0.5" x2="0.5" y2="1" gradientUnits="objectBoundingBox">
      <stop offset="0" stop-color="#22cae8"/>
      <stop offset="0.616" stop-color="#77eaff"/>
      <stop offset="1" stop-color="#2c90a2"/>
    </linearGradient>
  </defs>
  <g id="Group_1347" data-name="Group 1347" transform="translate(-161 -46)">
    <g id="Group_1344" data-name="Group 1344" transform="translate(10237 -6472.123)">
      <text id="tailorConnects" transform="translate(-9937 6541.123)" fill="#101a56" font-size="24" font-family="HarabaraMaisBold-HarabaraMaisBold, Harabara Mais Demo" font-weight="700"><tspan x="-74.196" y="0">tailorConnects</tspan></text>
      <text id="Tailor_to_every_India" data-name="Tailor to every India" transform="translate(-9937 6561)" fill="#a0a5ad" font-size="15" font-family="Okra-Regular, Okra" letter-spacing="0.017em"><tspan x="-73.719" y="0">Tailor to every india</tspan></text>
    </g>
    <g id="Group_1346" data-name="Group 1346" transform="translate(3055 -1035.86)">
      <g id="Ellipse_290" data-name="Ellipse 290" transform="translate(-2894 1081.86)" fill="none" stroke="#22cae8" stroke-width="2">
        <circle cx="25" cy="25" r="25" stroke="none"/>
        <circle cx="25" cy="25" r="24" fill="none"/>
      </g>
      <circle id="Ellipse_307" data-name="Ellipse 307" cx="1.5" cy="1.5" r="1.5" transform="translate(-2880 1112.86)" fill="#fff"/>
      <g id="Group_1341" data-name="Group 1341" transform="translate(-2886.962 1086.035)">
        <g id="Group_1339" data-name="Group 1339" transform="translate(0 0)">
          <g id="sew_1_" data-name="sew (1)" transform="matrix(0.819, -0.574, 0.574, 0.819, 10.886, 8.677)">
            <g id="Group_1326" data-name="Group 1326" transform="translate(0 0)">
              <path id="Path_1434" data-name="Path 1434" d="M12.505,6.4c-.095-.052-.194-.1-.3-.159a8.156,8.156,0,0,0,.316-4.251A2.511,2.511,0,0,0,10.158,0c-.9.055-1.541.808-1.712,2.013a3.893,3.893,0,0,0-.01,1.043,6.722,6.722,0,0,0-.4.656L.091,16.9a.356.356,0,0,0-.058.373l.075.14H.261a.349.349,0,0,0,.275-.184L9.676,5.276a9.716,9.716,0,0,0,1.912,1.238c-.282.91-.657,1.908-1.1,3.005-1.216,3.015-.649,5.5.207,6.073a.249.249,0,0,0,.139.042.256.256,0,0,0,.218-.125.276.276,0,0,0-.08-.372c-.6-.4-1.137-2.61-.008-5.409.434-1.076.8-2.061,1.089-2.969l.21.113c1.4.771,2.514,4.1,2.525,4.136a.256.256,0,0,0,.329.167C15.252,11.126,14.085,7.265,12.505,6.4ZM8.674,5.084l-.509.438.2-.656c.059-.192.17-.532.317-.9a3.392,3.392,0,0,0,.429.713C8.917,4.871,8.752,5.016,8.674,5.084Zm.814-.78A2.794,2.794,0,0,1,9,3.276c.25-.465.55-.841.866-.841a.447.447,0,0,1,.25.078.462.462,0,0,1,.212.372C10.355,3.275,9.923,3.839,9.488,4.3ZM11.742,5.99A8.754,8.754,0,0,1,10,4.854a3.885,3.885,0,0,0,.926-2.218.88.88,0,0,0-.353-.622.9.9,0,0,0-.539-.182,1.665,1.665,0,0,0-1.109.616c.005-.114.014-.232.032-.354C9.091,1.146,9.54.58,10.188.54l.071,0a2,2,0,0,1,1.768,1.587A7.528,7.528,0,0,1,11.742,5.99Z" fill="#22cae8"/>
            </g>
          </g>
          <path id="Path_1449" data-name="Path 1449" d="M-99.5-59.356v.766H-96.3v8.916h2.217V-58.59h3.206v-1.93h-7.512A1.151,1.151,0,0,0-99.5-59.356Zm11.675,8.119a.944.944,0,0,1-1.069-.989c0-.622.431-1.021,1.276-1.18a9.187,9.187,0,0,0,1.691-.51v.782A1.744,1.744,0,0,1-87.827-51.237Zm.494-5.263c.877,0,1.324.239,1.372.718,0,.463-.463.734-1.372.845-2.137.207-3.6.75-3.653,2.775,0,1.866,1.4,2.807,3.429,2.648,2.281-.16,3.684-1.2,3.684-3.525V-55.91c-.048-1.563-1.228-2.329-3.557-2.329-1.946,0-3.046.766-3.3,2.329h2.121C-88.5-56.309-88.082-56.5-87.332-56.5Zm4.482-4.019v1.659h2.121v-.622A.9.9,0,0,0-81.75-60.52Zm0,2.408v8.438h2.121v-7.417a.9.9,0,0,0-1.021-1.021Zm9.618,1.118A3.29,3.29,0,0,0-76.475-55.1s.6,4.37,3.155,4.37,2.243-.222,2.243-3.125C-71.076-56.788-70.68-56.993-73.232-56.993Zm.016.62c1.085,0,1.627.813,1.627,2.456-.016,1.675-.558,2.536-1.643,2.536s-1.643-.829-1.659-2.472C-74.891-55.528-74.333-56.373-73.216-56.373Zm4.865,6.7H-66.2V-54.06c0-1.228.59-1.85,1.77-1.85h.718v-2.2h-.3c-2.823,0-4.275,1.356-4.338,4.083Z" transform="translate(99.502 72.423)" fill="#101a56"/>
          <text id="Connects" transform="translate(17.962 29.825)" fill="#363636" font-size="8" font-family="HarabaraMaisBold-HarabaraMaisBold, Harabara Mais Demo" font-weight="700"><tspan x="-16.344" y="0">Connects</tspan></text>
        </g>
        <g id="Group_1340" data-name="Group 1340" transform="translate(22.508 14.561)">
          <ellipse id="Ellipse_306" data-name="Ellipse 306" cx="3.5" cy="4" rx="3.5" ry="4" transform="translate(0.454 0.264)" fill="#101a56"/>
          <path id="Path_1451" data-name="Path 1451" d="M3.128,0A3.128,3.128,0,1,1,0,3.128,3.128,3.128,0,0,1,3.128,0Z" transform="translate(0.64 1.02)" fill="url(#linear-gradient)"/>
          <path id="Path_1450" data-name="Path 1450" d="M147.565,143.417a.692.692,0,0,0-.106.841l-.661.661-.661-.661a.691.691,0,1,0-.242.242l.661.661-.661.661a.69.69,0,1,0,.242.242l.661-.661.661.661a.691.691,0,1,0,.242-.242l-.661-.661.661-.661a.691.691,0,1,0-.136-1.083Zm-2.022.837a.349.349,0,1,1,.349-.349.351.351,0,0,1-.013.094l-.215-.215a.171.171,0,0,0-.242.242l.215.215A.349.349,0,0,1,145.543,144.255Zm.349,2.162a.349.349,0,1,1-.255-.336l-.215.215a.171.171,0,0,0,.242.242l.215-.215A.35.35,0,0,1,145.891,146.417Zm2.162-.348a.349.349,0,1,1-.336.255l.215.215a.171.171,0,0,0,.242-.242l-.214-.215A.35.35,0,0,1,148.053,146.068Zm.247-2.409a.348.348,0,0,1-.34.582l.215-.215a.171.171,0,0,0-.242-.242l-.215.215a.349.349,0,0,1,.582-.34Zm0,0" transform="translate(-142.96 -141.1)" fill="#fff"/>
        </g>
      </g>
      <path id="Path_1452" data-name="Path 1452" d="M1.8,8.817c.993,0,1.8-.873,1.8.12a1.8,1.8,0,1,1-3.6,0C0,7.944.805,8.817,1.8,8.817Z" transform="translate(-2884.459 1086.188)" fill="#101a56"/>
    </g>
  </g>
</svg>
